<svg width="646" height="373" viewBox="0 0 646 373" fill="none" xmlns="http://www.w3.org/2000/svg">
<g clip-path="url(#clip0_1301_1267)">
<path d="M298.156 353.818C297.202 353.817 296.265 353.569 295.435 353.098L138.135 264.166C136.856 263.441 135.917 262.239 135.524 260.822C135.131 259.406 135.315 257.892 136.037 256.611L259.932 37.4704C260.29 36.8365 260.769 36.2794 261.343 35.8309C261.916 35.3824 262.573 35.0513 263.274 34.8566C263.976 34.6618 264.709 34.6071 265.431 34.6957C266.154 34.7843 266.852 35.0145 267.486 35.3729L424.786 124.305C426.065 125.03 427.004 126.232 427.397 127.648C427.79 129.064 427.606 130.579 426.884 131.859L302.99 351C302.633 351.635 302.154 352.193 301.58 352.642C301.006 353.09 300.349 353.421 299.647 353.614C299.162 353.749 298.66 353.818 298.156 353.818Z" fill="#E6E6E6"/>
<path d="M255.544 46.0558L254.912 47.1738L421.157 141.163L421.789 140.045L255.544 46.0558Z" fill="white"/>
<path d="M244.166 66.181L243.534 67.2991L409.779 161.288L410.411 160.17L244.166 66.181Z" fill="white"/>
<path d="M232.788 86.3063L232.156 87.4243L398.401 181.413L399.033 180.295L232.788 86.3063Z" fill="white"/>
<path d="M221.41 106.431L220.778 107.549L387.023 201.538L387.655 200.42L221.41 106.431Z" fill="white"/>
<path d="M210.032 126.557L209.4 127.675L375.645 221.663L376.277 220.545L210.032 126.557Z" fill="white"/>
<path d="M198.654 146.682L198.022 147.8L364.267 241.789L364.899 240.671L198.654 146.682Z" fill="white"/>
<path d="M187.276 166.807L186.644 167.925L352.889 261.914L353.521 260.796L187.276 166.807Z" fill="white"/>
<path d="M175.898 186.932L175.266 188.05L341.511 282.039L342.143 280.921L175.898 186.932Z" fill="white"/>
<path d="M164.52 207.057L163.888 208.175L330.133 302.164L330.765 301.046L164.52 207.057Z" fill="white"/>
<path d="M153.142 227.182L152.51 228.3L318.755 322.289L319.387 321.171L153.142 227.182Z" fill="white"/>
<path d="M141.764 247.307L141.132 248.426L307.377 342.414L308.009 341.296L141.764 247.307Z" fill="white"/>
<path d="M283.523 320.487C282.569 320.487 281.632 320.239 280.802 319.767L123.502 230.835C122.223 230.11 121.284 228.908 120.891 227.492C120.498 226.075 120.682 224.561 121.404 223.281L245.299 4.13984C245.657 3.50596 246.136 2.94886 246.71 2.50037C247.283 2.05187 247.94 1.72077 248.641 1.52599C249.343 1.33121 250.076 1.27657 250.798 1.36517C251.521 1.45377 252.219 1.6839 252.853 2.04239L410.153 90.9744C411.432 91.6992 412.371 92.9015 412.764 94.3177C413.157 95.7338 412.973 97.2482 412.251 98.5286L288.357 317.669C288 318.304 287.521 318.862 286.947 319.311C286.373 319.76 285.716 320.09 285.014 320.283C284.529 320.418 284.027 320.487 283.523 320.487Z" fill="#F2F2F2"/>
<path d="M240.911 12.7252L240.279 13.8433L406.524 107.832L407.156 106.714L240.911 12.7252Z" fill="white"/>
<path d="M229.533 32.8505L228.901 33.9685L395.146 127.957L395.778 126.839L229.533 32.8505Z" fill="white"/>
<path d="M218.155 52.9757L217.523 54.0938L383.768 148.083L384.4 146.965L218.155 52.9757Z" fill="white"/>
<path d="M206.777 73.1007L206.145 74.2188L372.39 168.208L373.022 167.09L206.777 73.1007Z" fill="white"/>
<path d="M195.399 93.2259L194.767 94.344L361.012 188.333L361.644 187.215L195.399 93.2259Z" fill="white"/>
<path d="M184.021 113.351L183.389 114.469L349.634 208.458L350.266 207.34L184.021 113.351Z" fill="white"/>
<path d="M172.643 133.476L172.011 134.594L338.256 228.583L338.888 227.465L172.643 133.476Z" fill="white"/>
<path d="M161.265 153.601L160.633 154.719L326.878 248.708L327.51 247.59L161.265 153.601Z" fill="white"/>
<path d="M149.887 173.727L149.255 174.845L315.5 268.834L316.132 267.715L149.887 173.727Z" fill="white"/>
<path d="M138.509 193.852L137.877 194.97L304.122 288.959L304.754 287.84L138.509 193.852Z" fill="white"/>
<path d="M127.131 213.977L126.499 215.095L292.744 309.084L293.376 307.966L127.131 213.977Z" fill="white"/>
<path d="M267.848 0H16.4568V349.564H267.848C268.751 349.564 269.617 349.205 270.255 348.567C270.894 347.928 271.253 347.062 271.253 346.159V3.40484C271.253 2.50183 270.894 1.63581 270.255 0.997283C269.617 0.358755 268.751 1.94036e-05 267.848 0ZM30.6436 339.917C29.409 339.917 28.2022 339.551 27.1756 338.865C26.1491 338.179 25.349 337.204 24.8766 336.064C24.4041 334.923 24.2805 333.668 24.5213 332.457C24.7622 331.246 25.3567 330.134 26.2297 329.261C27.1027 328.388 28.215 327.793 29.4258 327.553C30.6367 327.312 31.8918 327.435 33.0324 327.908C34.173 328.38 35.1479 329.18 35.8338 330.207C36.5198 331.233 36.8858 332.44 36.8858 333.675C36.8858 334.495 36.7244 335.306 36.4107 336.064C36.097 336.821 35.6372 337.509 35.0576 338.089C34.4779 338.668 33.7898 339.128 33.0324 339.442C32.2751 339.756 31.4634 339.917 30.6436 339.917ZM30.6436 308.139C29.409 308.139 28.2022 307.772 27.1756 307.087C26.1491 306.401 25.349 305.426 24.8766 304.285C24.4041 303.145 24.2805 301.889 24.5214 300.679C24.7622 299.468 25.3567 298.355 26.2297 297.482C27.1027 296.609 28.215 296.015 29.4258 295.774C30.6367 295.533 31.8918 295.657 33.0324 296.129C34.173 296.602 35.1479 297.402 35.8338 298.428C36.5198 299.455 36.8858 300.662 36.8858 301.896C36.8859 302.716 36.7244 303.528 36.4107 304.285C36.097 305.042 35.6372 305.731 35.0576 306.31C34.4779 306.89 33.7898 307.35 33.0324 307.663C32.2751 307.977 31.4634 308.139 30.6436 308.139ZM30.6436 276.36C29.409 276.36 28.2022 275.994 27.1756 275.308C26.1491 274.622 25.349 273.647 24.8766 272.507C24.4041 271.366 24.2805 270.111 24.5214 268.9C24.7622 267.689 25.3567 266.577 26.2297 265.704C27.1027 264.831 28.215 264.236 29.4258 263.995C30.6367 263.755 31.8918 263.878 33.0324 264.351C34.173 264.823 35.1479 265.623 35.8338 266.65C36.5198 267.676 36.8858 268.883 36.8858 270.118C36.8858 270.938 36.7244 271.749 36.4107 272.507C36.097 273.264 35.6372 273.952 35.0576 274.532C34.4779 275.111 33.7898 275.571 33.0324 275.885C32.2751 276.199 31.4634 276.36 30.6436 276.36ZM30.6436 244.581C29.409 244.581 28.2022 244.215 27.1756 243.529C26.1491 242.844 25.349 241.869 24.8766 240.728C24.4041 239.587 24.2805 238.332 24.5214 237.121C24.7622 235.911 25.3567 234.798 26.2297 233.925C27.1027 233.052 28.215 232.458 29.4258 232.217C30.6367 231.976 31.8918 232.1 33.0324 232.572C34.173 233.045 35.1479 233.845 35.8338 234.871C36.5198 235.898 36.8858 237.105 36.8858 238.339C36.8858 239.159 36.7244 239.971 36.4107 240.728C36.097 241.485 35.6372 242.173 35.0576 242.753C34.4779 243.333 33.7898 243.793 33.0324 244.106C32.2751 244.42 31.4634 244.581 30.6436 244.581ZM30.6436 212.803C29.409 212.803 28.2022 212.437 27.1756 211.751C26.1491 211.065 25.349 210.09 24.8766 208.949C24.4041 207.809 24.2805 206.554 24.5214 205.343C24.7622 204.132 25.3567 203.02 26.2297 202.147C27.1027 201.274 28.215 200.679 29.4258 200.438C30.6367 200.198 31.8918 200.321 33.0324 200.794C34.173 201.266 35.1479 202.066 35.8338 203.093C36.5198 204.119 36.8858 205.326 36.8858 206.561C36.8858 207.38 36.7244 208.192 36.4107 208.949C36.097 209.707 35.6372 210.395 35.0576 210.975C34.4779 211.554 33.7898 212.014 33.0324 212.328C32.2751 212.641 31.4634 212.803 30.6436 212.803ZM30.6436 181.024C29.409 181.024 28.2022 180.658 27.1756 179.972C26.1491 179.286 25.349 178.312 24.8766 177.171C24.4041 176.03 24.2805 174.775 24.5214 173.564C24.7622 172.353 25.3567 171.241 26.2297 170.368C27.1027 169.495 28.215 168.901 29.4258 168.66C30.6367 168.419 31.8918 168.543 33.0324 169.015C34.173 169.488 35.1479 170.288 35.8338 171.314C36.5198 172.341 36.8858 173.548 36.8858 174.782C36.8858 175.602 36.7244 176.414 36.4107 177.171C36.097 177.928 35.6372 178.616 35.0576 179.196C34.4779 179.776 33.7898 180.235 33.0324 180.549C32.2751 180.863 31.4634 181.024 30.6436 181.024ZM30.6436 149.246C29.409 149.246 28.2022 148.88 27.1756 148.194C26.1491 147.508 25.349 146.533 24.8766 145.392C24.4041 144.252 24.2805 142.997 24.5214 141.786C24.7622 140.575 25.3567 139.463 26.2297 138.59C27.1027 137.717 28.215 137.122 29.4258 136.881C30.6367 136.64 31.8918 136.764 33.0324 137.236C34.173 137.709 35.1479 138.509 35.8338 139.536C36.5198 140.562 36.8858 141.769 36.8858 143.004C36.8858 143.823 36.7244 144.635 36.4107 145.392C36.097 146.15 35.6372 146.838 35.0576 147.417C34.4779 147.997 33.7898 148.457 33.0324 148.771C32.2751 149.084 31.4634 149.246 30.6436 149.246ZM30.6436 117.467C29.409 117.467 28.2022 117.101 27.1756 116.415C26.1491 115.729 25.349 114.754 24.8766 113.614C24.4041 112.473 24.2805 111.218 24.5214 110.007C24.7622 108.796 25.3567 107.684 26.2297 106.811C27.1027 105.938 28.215 105.344 29.4258 105.103C30.6367 104.862 31.8918 104.985 33.0324 105.458C34.173 105.93 35.1479 106.73 35.8338 107.757C36.5198 108.784 36.8858 109.99 36.8858 111.225C36.8858 112.045 36.7244 112.856 36.4107 113.614C36.097 114.371 35.6372 115.059 35.0576 115.639C34.4779 116.219 33.7898 116.678 33.0324 116.992C32.2751 117.306 31.4634 117.467 30.6436 117.467ZM30.6436 85.6886C29.409 85.6886 28.2022 85.3225 27.1756 84.6366C26.1491 83.9507 25.349 82.9758 24.8766 81.8352C24.4041 80.6946 24.2805 79.4395 24.5214 78.2286C24.7622 77.0177 25.3567 75.9055 26.2297 75.0325C27.1027 74.1595 28.215 73.565 29.4258 73.3241C30.6367 73.0833 31.8918 73.2069 33.0324 73.6794C34.173 74.1518 35.1479 74.9519 35.8338 75.9784C36.5198 77.005 36.8858 78.2118 36.8858 79.4464C36.8858 80.2661 36.7244 81.0779 36.4107 81.8352C36.097 82.5925 35.6372 83.2807 35.0576 83.8603C34.4779 84.44 33.7898 84.8998 33.0324 85.2135C32.2751 85.5272 31.4634 85.6886 30.6436 85.6886ZM30.6436 53.9101C29.409 53.9101 28.2022 53.544 27.1756 52.8581C26.1491 52.1722 25.349 51.1973 24.8766 50.0566C24.4041 48.916 24.2805 47.6609 24.5213 46.4501C24.7622 45.2392 25.3567 44.1269 26.2297 43.2539C27.1027 42.3809 28.215 41.7864 29.4258 41.5456C30.6367 41.3047 31.8918 41.4283 33.0324 41.9008C34.173 42.3732 35.1479 43.1733 35.8338 44.1998C36.5198 45.2264 36.8858 46.4332 36.8858 47.6678C36.8858 48.4876 36.7244 49.2993 36.4107 50.0566C36.097 50.814 35.6372 51.5021 35.0576 52.0818C34.4779 52.6614 33.7898 53.1212 33.0324 53.4349C32.2751 53.7486 31.4634 53.9101 30.6436 53.9101ZM30.6436 22.1315C29.409 22.1315 28.2022 21.7654 27.1756 21.0795C26.1491 20.3936 25.349 19.4187 24.8766 18.2781C24.4041 17.1375 24.2805 15.8824 24.5213 14.6715C24.7622 13.4606 25.3567 12.3484 26.2297 11.4754C27.1027 10.6024 28.215 10.0079 29.4258 9.767C30.6367 9.52614 31.8918 9.64976 33.0324 10.1222C34.173 10.5947 35.1479 11.3948 35.8338 12.4213C36.5198 13.4478 36.8858 14.6547 36.8858 15.8893C36.8858 16.709 36.7244 17.5207 36.4107 18.2781C36.097 19.0354 35.6372 19.7236 35.0576 20.3032C34.4779 20.8828 33.7898 21.3426 33.0324 21.6563C32.2751 21.97 31.4634 22.1315 30.6436 22.1315Z" fill="#3F3D56"/>
<path d="M16.4568 19.2941C14.7723 19.2941 0 19.2146 0 16.4568C0 13.6989 14.7723 13.6194 16.4568 13.6194V14.7543C7.75601 14.7543 2.11431 15.7283 1.20574 16.4568C2.11431 17.1852 7.75601 18.1592 16.4568 18.1592C25.1381 18.1592 30.774 17.1893 31.7015 16.4618C31.2601 16.15 29.4569 15.4967 24.6203 15.0785L24.718 13.948C32.9135 14.6563 32.9135 15.9644 32.9135 16.4568C32.9135 19.2146 18.1412 19.2941 16.4568 19.2941Z" fill="#2F2E41"/>
<path d="M16.4568 50.5053C14.7723 50.5053 0 50.4258 0 47.6679C0 44.9101 14.7723 44.8306 16.4568 44.8306V45.9655C7.75601 45.9655 2.11431 46.9395 1.20574 47.6679C2.11431 48.3964 7.75601 49.3704 16.4568 49.3704C25.1381 49.3704 30.774 48.4005 31.7015 47.673C31.2601 47.3612 29.4569 46.7079 24.6203 46.2898L24.718 45.1592C32.9135 45.8675 32.9135 47.1756 32.9135 47.668C32.9135 50.4258 18.1412 50.5053 16.4568 50.5053Z" fill="#2F2E41"/>
<path d="M16.4568 82.2839C14.7723 82.2839 0 82.2043 0 79.4465C0 76.6886 14.7723 76.6091 16.4568 76.6091V77.7441C7.75601 77.7441 2.11431 78.718 1.20574 79.4465C2.11431 80.1749 7.75601 81.1489 16.4568 81.1489C25.1381 81.1489 30.774 80.1791 31.7015 79.4515C31.2601 79.1398 29.4569 78.4864 24.6203 78.0683L24.718 76.9378C32.9135 77.646 32.9135 78.9541 32.9135 79.4465C32.9135 82.2043 18.1412 82.2839 16.4568 82.2839Z" fill="#2F2E41"/>
<path d="M16.4568 114.062C14.7723 114.062 0 113.983 0 111.225C0 108.467 14.7723 108.388 16.4568 108.388V109.523C7.75601 109.523 2.11431 110.497 1.20574 111.225C2.11431 111.954 7.75601 112.928 16.4568 112.928C25.1381 112.928 30.774 111.958 31.7015 111.23C31.2601 110.918 29.4569 110.265 24.6203 109.847L24.718 108.716C32.9135 109.425 32.9135 110.733 32.9135 111.225C32.9135 113.983 18.1412 114.062 16.4568 114.062Z" fill="#2F2E41"/>
<path d="M16.4568 145.841C14.7723 145.841 0 145.761 0 143.003C0 140.246 14.7723 140.166 16.4568 140.166V141.301C7.75601 141.301 2.11431 142.275 1.20574 143.003C2.11431 143.732 7.75601 144.706 16.4568 144.706C25.1381 144.706 30.774 143.736 31.7015 143.008C31.2601 142.697 29.4569 142.043 24.6203 141.625L24.718 140.495C32.9135 141.203 32.9135 142.511 32.9135 143.003C32.9135 145.761 18.1412 145.841 16.4568 145.841Z" fill="#2F2E41"/>
<path d="M16.4568 177.62C14.7723 177.62 0 177.54 0 174.782C0 172.024 14.7723 171.945 16.4568 171.945V173.08C7.75601 173.08 2.11431 174.054 1.20574 174.782C2.11431 175.511 7.75601 176.485 16.4568 176.485C25.1381 176.485 30.774 175.515 31.7015 174.787C31.2601 174.475 29.4569 173.822 24.6203 173.404L24.718 172.273C32.9135 172.982 32.9135 174.29 32.9135 174.782C32.9135 177.54 18.1412 177.62 16.4568 177.62Z" fill="#2F2E41"/>
<path d="M16.4568 209.398C14.7723 209.398 0 209.319 0 206.561C0 203.803 14.7723 203.723 16.4568 203.723V204.858C7.75601 204.858 2.11431 205.832 1.20574 206.561C2.11431 207.289 7.75601 208.263 16.4568 208.263C25.1381 208.263 30.774 207.293 31.7015 206.566C31.2601 206.254 29.4569 205.601 24.6203 205.183L24.718 204.052C32.9135 204.76 32.9135 206.068 32.9135 206.561C32.9135 209.319 18.1412 209.398 16.4568 209.398Z" fill="#2F2E41"/>
<path d="M16.4568 241.177C14.7723 241.177 0 241.097 0 238.339C0 235.581 14.7723 235.502 16.4568 235.502V236.637C7.75601 236.637 2.11431 237.611 1.20574 238.339C2.11431 239.068 7.75601 240.042 16.4568 240.042C25.1381 240.042 30.774 239.072 31.7015 238.344C31.2601 238.033 29.4569 237.379 24.6203 236.961L24.718 235.831C32.9135 236.539 32.9135 237.847 32.9135 238.339C32.9135 241.097 18.1412 241.177 16.4568 241.177Z" fill="#2F2E41"/>
<path d="M16.4568 272.955C14.7723 272.955 0 272.876 0 270.118C0 267.36 14.7723 267.281 16.4568 267.281V268.415C7.75601 268.415 2.11431 269.389 1.20574 270.118C2.11431 270.846 7.75601 271.82 16.4568 271.82C25.1381 271.82 30.774 270.85 31.7015 270.123C31.2601 269.811 29.4569 269.158 24.6203 268.74L24.718 267.609C32.9135 268.317 32.9135 269.626 32.9135 270.118C32.9135 272.876 18.1412 272.955 16.4568 272.955Z" fill="#2F2E41"/>
<path d="M16.4568 304.734C14.7723 304.734 0 304.654 0 301.896C0 299.139 14.7723 299.059 16.4568 299.059V300.194C7.75601 300.194 2.11431 301.168 1.20574 301.896C2.11431 302.625 7.75601 303.599 16.4568 303.599C25.1381 303.599 30.774 302.629 31.7015 301.901C31.2601 301.59 29.4569 300.936 24.6203 300.518L24.718 299.388C32.9135 300.096 32.9135 301.404 32.9135 301.896C32.9135 304.654 18.1412 304.734 16.4568 304.734Z" fill="#2F2E41"/>
<path d="M16.4568 336.512C14.7723 336.512 0 336.433 0 333.675C0 330.917 14.7723 330.837 16.4568 330.837V331.972C7.75601 331.972 2.11431 332.946 1.20574 333.675C2.11431 334.403 7.75601 335.377 16.4568 335.377C25.1381 335.377 30.774 334.407 31.7015 333.68C31.2601 333.368 29.4569 332.715 24.6203 332.297L24.718 331.166C32.9135 331.874 32.9135 333.182 32.9135 333.675C32.9135 336.433 18.1412 336.512 16.4568 336.512Z" fill="#2F2E41"/>
<path d="M216.491 133.64H91.6471C90.6691 133.639 89.7316 133.25 89.0401 132.559C88.3486 131.867 87.9596 130.93 87.9585 129.952V81.1488C87.9596 80.1709 88.3486 79.2333 89.0401 78.5418C89.7316 77.8503 90.6691 77.4613 91.6471 77.4602H216.491C217.469 77.4613 218.407 77.8503 219.098 78.5418C219.79 79.2333 220.179 80.1709 220.18 81.1488V129.952C220.179 130.93 219.79 131.867 219.098 132.559C218.407 133.25 217.469 133.639 216.491 133.64Z" fill="white"/>
<path d="M169.958 94.2006H138.18C137.427 94.2006 136.706 93.9017 136.174 93.3696C135.641 92.8374 135.343 92.1157 135.343 91.3632C135.343 90.6107 135.641 89.889 136.174 89.3569C136.706 88.8248 137.427 88.5259 138.18 88.5259H169.958C170.711 88.5259 171.433 88.8248 171.965 89.3569C172.497 89.889 172.796 90.6107 172.796 91.3632C172.796 92.1157 172.497 92.8374 171.965 93.3696C171.433 93.9017 170.711 94.2006 169.958 94.2006Z" fill="#6EE7B7"/>
<path d="M187.55 108.388H120.588C119.836 108.388 119.114 108.089 118.582 107.557C118.05 107.024 117.751 106.303 117.751 105.55C117.751 104.798 118.05 104.076 118.582 103.544C119.114 103.012 119.836 102.713 120.588 102.713H187.55C188.303 102.713 189.025 103.012 189.557 103.544C190.089 104.076 190.388 104.798 190.388 105.55C190.388 106.303 190.089 107.024 189.557 107.557C189.025 108.089 188.303 108.388 187.55 108.388Z" fill="#6EE7B7"/>
<path d="M187.55 122.574H120.588C119.836 122.574 119.114 122.275 118.582 121.743C118.05 121.211 117.751 120.49 117.751 119.737C117.751 118.984 118.05 118.263 118.582 117.731C119.114 117.199 119.836 116.9 120.588 116.9H187.55C188.303 116.9 189.025 117.199 189.557 117.731C190.089 118.263 190.388 118.984 190.388 119.737C190.388 120.49 190.089 121.211 189.557 121.743C189.025 122.275 188.303 122.574 187.55 122.574Z" fill="#6EE7B7"/>
</g>
<defs>
<clipPath id="clip0_1301_1267">
<rect width="645.666" height="373" fill="white"/>
</clipPath>
</defs>
</svg>
